<mxfile host="app.diagrams.net" agent="Mozilla/5.0 (Macintosh; Intel Mac OS X 10_15_7) AppleWebKit/537.36 (KHTML, like Gecko) Chrome/131.0.0.0 Safari/537.36" version="26.0.2">
  <diagram name="Pagina-1" id="d-HpX_LoTkeRKkdBGccs">
    <mxGraphModel dx="1143" dy="734" grid="1" gridSize="10" guides="1" tooltips="1" connect="1" arrows="1" fold="1" page="1" pageScale="1" pageWidth="827" pageHeight="1169" math="0" shadow="0">
      <root>
        <mxCell id="0" />
        <mxCell id="1" parent="0" />
        <mxCell id="LPFhy_tHO6sJ0fyHwenL-1" value="" style="rounded=0;whiteSpace=wrap;html=1;fillColor=none;strokeColor=#82b366;dashed=1;strokeWidth=7.0866;" vertex="1" parent="1">
          <mxGeometry x="80" y="242.5" width="700" height="415" as="geometry" />
        </mxCell>
        <mxCell id="fXbC9xNMoh53pdwaWPR8-1" value="Data Node" style="swimlane;whiteSpace=wrap;html=1;fillColor=#d5e8d4;strokeColor=#82b366;" parent="1" vertex="1">
          <mxGeometry x="110" y="260" width="640" height="380" as="geometry" />
        </mxCell>
        <mxCell id="LPFhy_tHO6sJ0fyHwenL-4" value="Proxy" style="rounded=1;whiteSpace=wrap;html=1;fillColor=#dae8fc;strokeColor=#6c8ebf;fontSize=26;fontStyle=0;fontColor=#0000CC;" vertex="1" parent="fXbC9xNMoh53pdwaWPR8-1">
          <mxGeometry x="260" y="160" width="120" height="60" as="geometry" />
        </mxCell>
        <mxCell id="LPFhy_tHO6sJ0fyHwenL-5" value="Processor" style="ellipse;whiteSpace=wrap;html=1;aspect=fixed;fontSize=15;fontStyle=2;fillColor=#60a917;strokeColor=#2D7600;fontColor=#ffffff;" vertex="1" parent="fXbC9xNMoh53pdwaWPR8-1">
          <mxGeometry x="275" y="279.5" width="90" height="90" as="geometry" />
        </mxCell>
        <mxCell id="LPFhy_tHO6sJ0fyHwenL-19" value="" style="endArrow=classic;startArrow=classic;html=1;rounded=0;exitX=0.5;exitY=1;exitDx=0;exitDy=0;entryX=0.5;entryY=0;entryDx=0;entryDy=0;fillColor=#60a917;strokeColor=#2D7600;" edge="1" parent="fXbC9xNMoh53pdwaWPR8-1" source="LPFhy_tHO6sJ0fyHwenL-4" target="LPFhy_tHO6sJ0fyHwenL-5">
          <mxGeometry width="50" height="50" relative="1" as="geometry">
            <mxPoint x="280" y="130" as="sourcePoint" />
            <mxPoint x="330" y="80" as="targetPoint" />
          </mxGeometry>
        </mxCell>
        <mxCell id="LPFhy_tHO6sJ0fyHwenL-20" value="- Sign-in&lt;div&gt;- Authorisations&lt;/div&gt;" style="shape=process;whiteSpace=wrap;html=1;backgroundOutline=1;fillColor=#e1d5e7;strokeColor=#9673a6;" vertex="1" parent="fXbC9xNMoh53pdwaWPR8-1">
          <mxGeometry x="330" y="120" width="110" height="30" as="geometry" />
        </mxCell>
        <mxCell id="LPFhy_tHO6sJ0fyHwenL-21" value="Input/Output&amp;nbsp;&lt;div&gt;folders&lt;/div&gt;" style="shape=process;whiteSpace=wrap;html=1;backgroundOutline=1;fillColor=#60a917;strokeColor=#2D7600;fontColor=#ffffff;" vertex="1" parent="fXbC9xNMoh53pdwaWPR8-1">
          <mxGeometry x="210" y="230" width="100" height="40" as="geometry" />
        </mxCell>
        <mxCell id="LPFhy_tHO6sJ0fyHwenL-23" value="Notarisations&lt;div&gt;Digital Signing&lt;/div&gt;" style="shape=process;whiteSpace=wrap;html=1;backgroundOutline=1;fillColor=#ffe6cc;strokeColor=#FF6666;" vertex="1" parent="fXbC9xNMoh53pdwaWPR8-1">
          <mxGeometry x="150" y="140" width="100" height="40" as="geometry" />
        </mxCell>
        <mxCell id="LPFhy_tHO6sJ0fyHwenL-25" value="Polling&lt;div&gt;Tasks&lt;/div&gt;" style="shape=process;whiteSpace=wrap;html=1;backgroundOutline=1;fillColor=#d80073;strokeColor=#A50040;fontColor=#ffffff;" vertex="1" parent="fXbC9xNMoh53pdwaWPR8-1">
          <mxGeometry x="510" y="40" width="100" height="30" as="geometry" />
        </mxCell>
        <mxCell id="LPFhy_tHO6sJ0fyHwenL-3" value="GUI" style="swimlane;whiteSpace=wrap;html=1;fillColor=#d80073;fontColor=#ffffff;strokeColor=#A50040;" vertex="1" parent="1">
          <mxGeometry x="550" y="190" width="130" height="40" as="geometry" />
        </mxCell>
        <mxCell id="LPFhy_tHO6sJ0fyHwenL-6" value="B&amp;amp;C Agent" style="ellipse;whiteSpace=wrap;html=1;fontSize=15;fontStyle=2;fillColor=#ffe6cc;strokeColor=#FF6666;" vertex="1" parent="1">
          <mxGeometry x="130" y="410" width="120" height="80" as="geometry" />
        </mxCell>
        <mxCell id="LPFhy_tHO6sJ0fyHwenL-7" value="Scheduler" style="ellipse;whiteSpace=wrap;html=1;fontSize=15;fontStyle=2;fillColor=#fff2cc;strokeColor=#d6b656;" vertex="1" parent="1">
          <mxGeometry x="600" y="410" width="120" height="80" as="geometry" />
        </mxCell>
        <mxCell id="LPFhy_tHO6sJ0fyHwenL-8" value="PermAgent" style="ellipse;whiteSpace=wrap;html=1;fontSize=15;fontStyle=2;fillColor=#e1d5e7;strokeColor=#9673a6;" vertex="1" parent="1">
          <mxGeometry x="370" y="290" width="120" height="80" as="geometry" />
        </mxCell>
        <mxCell id="LPFhy_tHO6sJ0fyHwenL-16" value="" style="endArrow=classic;startArrow=classic;html=1;rounded=0;exitX=0.5;exitY=0;exitDx=0;exitDy=0;entryX=0.5;entryY=1;entryDx=0;entryDy=0;fillColor=#e1d5e7;strokeColor=#9673a6;" edge="1" parent="1" source="LPFhy_tHO6sJ0fyHwenL-4" target="LPFhy_tHO6sJ0fyHwenL-8">
          <mxGeometry width="50" height="50" relative="1" as="geometry">
            <mxPoint x="390" y="390" as="sourcePoint" />
            <mxPoint x="440" y="340" as="targetPoint" />
          </mxGeometry>
        </mxCell>
        <mxCell id="LPFhy_tHO6sJ0fyHwenL-17" value="" style="endArrow=classic;startArrow=classic;html=1;rounded=0;exitX=1;exitY=0.5;exitDx=0;exitDy=0;entryX=0;entryY=0.5;entryDx=0;entryDy=0;fillColor=#ffe6cc;strokeColor=#FF6666;" edge="1" parent="1" source="LPFhy_tHO6sJ0fyHwenL-6" target="LPFhy_tHO6sJ0fyHwenL-4">
          <mxGeometry width="50" height="50" relative="1" as="geometry">
            <mxPoint x="390" y="390" as="sourcePoint" />
            <mxPoint x="440" y="340" as="targetPoint" />
          </mxGeometry>
        </mxCell>
        <mxCell id="LPFhy_tHO6sJ0fyHwenL-18" value="" style="endArrow=classic;startArrow=classic;html=1;rounded=0;exitX=1;exitY=0.5;exitDx=0;exitDy=0;entryX=0;entryY=0.5;entryDx=0;entryDy=0;fillColor=#fff2cc;strokeColor=#d6b656;" edge="1" parent="1" source="LPFhy_tHO6sJ0fyHwenL-4" target="LPFhy_tHO6sJ0fyHwenL-7">
          <mxGeometry width="50" height="50" relative="1" as="geometry">
            <mxPoint x="390" y="390" as="sourcePoint" />
            <mxPoint x="440" y="340" as="targetPoint" />
          </mxGeometry>
        </mxCell>
        <mxCell id="LPFhy_tHO6sJ0fyHwenL-22" value="Scheduling" style="shape=process;whiteSpace=wrap;html=1;backgroundOutline=1;fillColor=#fff2cc;strokeColor=#d6b656;" vertex="1" parent="1">
          <mxGeometry x="510" y="470" width="90" height="20" as="geometry" />
        </mxCell>
        <mxCell id="LPFhy_tHO6sJ0fyHwenL-24" value="" style="endArrow=classic;startArrow=classic;html=1;rounded=0;exitX=1;exitY=0.25;exitDx=0;exitDy=0;entryX=0.5;entryY=1;entryDx=0;entryDy=0;fillColor=#d80073;strokeColor=#A50040;" edge="1" parent="1" source="LPFhy_tHO6sJ0fyHwenL-4" target="LPFhy_tHO6sJ0fyHwenL-3">
          <mxGeometry width="50" height="50" relative="1" as="geometry">
            <mxPoint x="560" y="170" as="sourcePoint" />
            <mxPoint x="610" y="120" as="targetPoint" />
            <Array as="points">
              <mxPoint x="615" y="390" />
            </Array>
          </mxGeometry>
        </mxCell>
      </root>
    </mxGraphModel>
  </diagram>
</mxfile>
